<svg viewBox="0 0 924.09 661.63" xmlns="http://www.w3.org/2000/svg"><g stroke-width=".216"><g stroke="#000"><path d="M35.304 212.14l3.354 12.11 3.309 11.904 3.334 11.959 3.358 12.007 3.379 12.053 3.4 12.095 3.418 12.133 3.433 12.167 3.449 12.198 3.461 12.224 3.472 12.246 3.481 12.266 3.488 12.28 3.494 12.292 3.497 12.3 3.499 12.303 3.499 12.303 3.497 12.298 3.493 12.291 3.487 12.28 3.481 12.265 3.471 12.24 3.461 12.22 3.447 12.2 3.433 12.16 3.417 12.13 3.398 12.09 3.377 12.05 3.357 12 3.332 11.95 3.307 11.9 3.317 11.98.398 1.12.605 1.18.74 1.07.851.98.946.88 1.026.8 1.101.72 1.172.65 1.238.59 1.302.54 1.367.48 1.43.43 1.491.38 1.55.33 1.61.29 1.667.24 1.723.19 1.776.14 1.828.1 1.877.05h1.925l1.968-.04 2.012-.1 2.052-.15 2.09-.2 2.124-.25 2.157-.3 2.187-.36 2.214-.42 2.24-.47 2.26-.52 2.066-.53 20.724-3.39 20.846-3.48 20.792-3.54 20.742-3.6 20.695-3.65 20.652-3.7 20.614-3.74 20.58-3.78 20.545-3.81 20.52-3.84 20.496-3.87 20.476-3.89 20.46-3.91 20.448-3.92 20.438-3.93 20.435-3.93 20.433-3.94 20.437-3.92 20.443-3.92 20.45-3.91 20.47-3.89 20.49-3.87 20.5-3.84 20.54-3.81 20.56-3.78 20.6-3.73 20.63-3.7 20.68-3.64 20.71-3.6 20.77-3.53 20.82-3.48 21.21-3.47 1.66-.56 1.47-.62 1.47-.72 1.46-.84 1.46-.94 1.44-1.05 1.42-1.16 1.41-1.27 1.38-1.37 1.35-1.48 1.33-1.6 1.28-1.7 1.25-1.81 1.21-1.91 1.15-2.03 1.11-2.14 1.05-2.26.99-2.36.92-2.47.86-2.586.78-2.7.71-2.808.62-2.925.54-3.038.45-3.152.35-3.267.25-3.383.16-3.498.04-3.615-.06-3.732-.19-3.85-.35-4.713-187.38-362.92L57.142 153.1l-2.747.55-2.564.637-2.397.73-2.239.826-2.083.927-1.934 1.036-1.78 1.145-1.63 1.26-1.475 1.372-1.313 1.48-1.149 1.578-.985 1.666-.827 1.74-.674 1.806-.535 1.86-.405 1.913-.288 1.962-.186 2.008-.09 2.06-.01 2.109.063 2.165.13 2.22.185 2.28.235 2.339.277 2.403.312 2.466.34 2.532.361 2.599.377 2.668.385 2.737.387 2.807.421 3.16h0z"/><path d="M36.274 211.94l3.336 12.044 3.309 11.903 3.334 11.958 3.357 12.006 3.38 12.053 3.399 12.095 3.418 12.132 3.433 12.166 3.449 12.198 3.46 12.223 3.472 12.246 3.481 12.266 3.488 12.28 3.494 12.292 3.497 12.3 3.499 12.303 3.499 12.303 3.497 12.298 3.493 12.291 3.488 12.28 3.481 12.265 3.471 12.24 3.46 12.22 3.448 12.2 3.433 12.16 3.417 12.13 3.398 12.09 3.378 12.05 3.356 12.01 3.333 11.95 3.307 11.9 3.308 11.94.364 1.03.545 1.06.673.97.78.9.876.82.96.74 1.038.68 1.114.62 1.184.57 1.254.51 1.321.47 1.388.41 1.453.38 1.514.32 1.576.28 1.636.24 1.693.19 1.748.14 1.801.09 1.851.05 1.9.01 1.943-.05 1.99-.1 2.028-.14 2.067-.2 2.102-.25 2.135-.3 2.165-.35 2.193-.41 2.217-.47 2.24-.52 2.098-.54 20.766-3.39 20.843-3.49 20.788-3.54 20.74-3.59 20.692-3.65 20.65-3.7 20.612-3.74 20.576-3.78 20.545-3.81 20.52-3.84 20.493-3.87 20.476-3.89 20.458-3.91 20.448-3.92 20.438-3.93 20.434-3.93 20.434-3.94 20.437-3.93 20.443-3.91 20.455-3.91 20.47-3.89 20.48-3.87 20.51-3.84 20.54-3.81 20.56-3.78 20.6-3.73 20.64-3.7 20.68-3.65 20.72-3.59 20.77-3.54 20.82-3.48 21.13-3.45 1.55-.53 1.41-.59 1.42-.7 1.41-.8 1.41-.92 1.39-1.01 1.39-1.13 1.37-1.23 1.34-1.34 1.33-1.45 1.29-1.56 1.26-1.66 1.23-1.78 1.18-1.88 1.14-2 1.08-2.1 1.04-2.21.97-2.33.91-2.44.85-2.55.77-2.662.69-2.776.62-2.89.53-3.004.45-3.12.35-3.235.25-3.351.15-3.466.04-3.586-.06-3.702-.18-3.821-.34-4.5-186.96-362.11-638.83 98.624-2.702.54-2.518.627-2.345.713-2.18.805-2.023.9-1.866 1-1.713 1.1-1.56 1.207L39 162.274l-1.25 1.409-1.094 1.502-.938 1.586-.789 1.662-.647 1.729-.514 1.79-.39 1.849-.28 1.904-.182 1.959-.089 2.016-.01 2.073.063 2.134.128 2.195.184 2.258.233 2.323.275 2.39.311 2.457.34 2.526.36 2.596.377 2.667.386 2.738.387 2.81.412 3.096z"/><path d="M37.245 211.74l3.317 11.977 3.308 11.903 3.334 11.957 3.357 12.006 3.38 12.052 3.399 12.094 3.417 12.132 3.434 12.166 3.448 12.197 3.461 12.223 3.472 12.246 3.48 12.265 3.488 12.28 3.494 12.292 3.497 12.299 3.499 12.304 3.5 12.302 3.496 12.299 3.493 12.292 3.488 12.279 3.481 12.265 3.471 12.24 3.461 12.23 3.447 12.19 3.434 12.17 3.416 12.13 3.4 12.09 3.377 12.05 3.357 12 3.332 11.95 3.308 11.9 3.298 11.91.331.94.486.94.604.88.71.81.806.75.893.7.976.64 1.055.58 1.132.54 1.204.5 1.276.45 1.346.4 1.415.36 1.478.32 1.543.28 1.604.23 1.663.18 1.72.14 1.773.1 1.825.05h1.875l1.92-.05 1.965-.09 2.005-.15 2.045-.19 2.08-.25 2.113-.3 2.143-.35 2.172-.4 2.196-.46 2.218-.52 2.131-.55 20.807-3.4 20.84-3.48 20.785-3.54 20.736-3.6 20.69-3.65 20.648-3.69 20.61-3.74 20.574-3.78 20.543-3.81 20.517-3.85 20.493-3.86 20.475-3.89 20.458-3.91 20.446-3.92 20.438-3.93 20.435-3.93 20.433-3.94 20.437-3.93 20.444-3.91 20.451-3.91 20.47-3.89 20.49-3.87 20.51-3.84 20.54-3.81 20.57-3.78 20.6-3.74 20.64-3.69 20.67-3.65 20.73-3.59 20.77-3.54 20.83-3.48 21.05-3.44 1.44-.49 1.35-.57 1.36-.67 1.37-.78 1.36-.88 1.35-.99 1.35-1.09 1.33-1.2 1.31-1.31 1.29-1.41 1.27-1.52 1.23-1.63 1.2-1.74 1.16-1.85 1.12-1.96 1.07-2.07 1.01-2.17.96-2.3.9-2.4.83-2.512.76-2.628.69-2.741.61-2.857.53-2.97.44-3.087.34-3.202.25-3.32.15-3.435.05-3.555-.07-3.673-.18-3.792-.32-4.285-186.54-361.3-638.11 98.51-2.659.534-2.47.614-2.294.697-2.124.784-1.959.872-1.8.964-1.644 1.057-1.49 1.152-1.338 1.246-1.188 1.338-1.037 1.425-.892 1.507-.752 1.583-.618 1.654-.493 1.72-.378 1.783-.272 1.847-.176 1.909-.088 1.973-.009 2.037.062 2.103.126 2.169.183 2.238.231 2.306.274 2.377.31 2.448.338 2.52.361 2.593.376 2.666.386 2.74.388 2.814.404 3.03z"/><path d="M38.215 211.54l3.3 11.911 3.307 11.903 3.334 11.955 3.357 12.006 3.38 12.051 3.398 12.093 3.417 12.132 3.433 12.165 3.45 12.197 3.46 12.223 3.471 12.245 3.481 12.265 3.488 12.28 3.493 12.292 3.497 12.299 3.5 12.303 3.498 12.303 3.497 12.299 3.494 12.291 3.488 12.28 3.48 12.265 3.472 12.25 3.461 12.22 3.447 12.19 3.434 12.17 3.416 12.13 3.4 12.09 3.377 12.05 3.357 12 3.333 11.96 3.308 11.9 3.29 11.88.295.83.427.83.537.78.64.73.736.69.826.64.913.6.997.56 1.078.51 1.156.48 1.231.43 1.304.39 1.376.35 1.443.31 1.51.27 1.571.23 1.633.18 1.691.14 1.747.09 1.8.05h1.848l1.896-.05 1.941-.09 1.983-.14 2.022-.19 2.058-.25 2.091-.29 2.122-.35 2.15-.4 2.174-.46 2.197-.51 2.163-.56 20.85-3.4 20.835-3.48 20.783-3.54 20.733-3.6 20.687-3.65 20.646-3.69 20.607-3.74 20.573-3.78 20.541-3.81 20.516-3.85 20.492-3.86 20.473-3.89 20.457-3.91 20.446-3.92 20.438-3.93 20.434-3.93 20.434-3.94 20.437-3.93 20.444-3.92 20.457-3.9 20.47-3.89 20.49-3.87 20.51-3.84 20.54-3.81 20.57-3.78 20.6-3.74 20.64-3.69 20.68-3.65 20.73-3.6 20.78-3.54 20.83-3.48 20.97-3.42 1.33-.46 1.29-.54 1.31-.64 1.31-.75 1.32-.85 1.31-.96 1.3-1.06 1.3-1.17 1.28-1.27 1.26-1.38 1.23-1.49 1.21-1.59 1.18-1.71 1.13-1.81 1.1-1.92 1.05-2.03 1-2.14.94-2.26.89-2.366.82-2.48.75-2.592.68-2.707.6-2.822.52-2.937.44-3.053.34-3.17.25-3.288.14-3.405.05-3.524-.07-3.644-.17-3.763-.31-4.071-186.13-360.49-637.37 98.398-2.614.525-2.424.602-2.241.682-2.067.762-1.896.845-1.734.928-1.574 1.013-1.421 1.098-1.271 1.183-1.124 1.267-.982 1.349-.845 1.428-.714 1.504-.59 1.577-.473 1.65-.365 1.719-.263 1.79-.171 1.859-.086 1.929-.01 2 .062 2.072.125 2.144.18 2.217.23 2.29.273 2.365.308 2.439.338 2.514.36 2.589.377 2.665.385 2.742.389 2.817.395 2.965h0z"/><path d="M39.185 211.35c34.84 126.02 74.65 262.48 109.49 388.5 2.221 8.03 22.903 11.44 46.411 5.14 223.15-36.06 435.91-83.92 659.06-119.98 12.87-3.92 28.22-24.83 24.45-66.617l-184.11-359.68-636.65 98.286c-28.488 5.099-22.725 23.003-18.647 54.359z"/><g fill="#fff"><path d="M45.643 203.11l99.784 337.74c2.096 7.1 20.34 10.17 41.218 4.57 198.17-32.03 467.31-81.88 665.49-113.9 14.61-1.733 26.11-9.23 19.64-29.029l-177.02-343.79-635.22 97.325c-25.299 4.528-23.45 20.726-13.885 47.086z"/><path d="M699.4 233.6l51.09-7.454 74.98 144.7-52.66 10.717-73.41-147.96z"/></g><path d="M749.95 266.81l2.85-.136 37.41 73.598-2.98.677-37.28-74.139zM643.01 122.28c17.99 1.966 31.16 10.788 29.42 19.699-1.74 8.911-17.73 14.543-35.72 12.577-17.98-1.966-31.16-10.788-29.42-19.699 1.74-8.912 17.74-14.544 35.72-12.577z"/><path d="M644.58 103.89c49.49 7.514 85.75 41.226 80.96 75.281s-48.8 55.578-98.29 48.063c-49.495-7.515-85.749-41.226-80.963-75.281s48.803-55.578 98.293-48.063z"/><g fill="#fff"><path d="M644.15 101.09c49.27 7.198 85.37 39.489 80.6 72.109-4.76 32.62-48.59 53.236-97.86 46.038-49.275-7.198-85.37-39.489-80.605-72.109s48.585-53.236 97.865-46.038z"/><path d="M661.21 152.15c-6.66 2.85-16.02 4.1-26 3.009-17.99-1.966-31.16-10.788-29.42-19.699.84-4.324 5.04-7.877 11.2-10.163-5.33 2.286-8.92 5.599-9.7 9.56-1.73 8.913 11.44 17.735 29.42 19.701 9.25 1.011 17.97.012 24.5-2.408z"/></g><path d="M642.32 112.72c38.34 5.523 66.42 30.297 62.71 55.324-2.01 13.582-12.97 24.452-28.71 30.67-10.08 3.986-22.13 6.061-35.03 5.713-4.06-.109-8.2-.458-12.39-1.062-38.339-5.522-66.421-30.297-62.713-55.323 3.707-25.027 37.803-40.844 76.133-35.322z"/><path d="M642.83 110.43c36.39 4.867 63.05 26.7 59.53 48.757-3.51 22.056-35.88 35.995-72.28 31.128-36.389-4.867-63.049-26.7-59.529-48.756 3.519-22.057 35.889-35.996 72.279-31.129z" fill="#fff"/><path d="M642.02 122.07c20.25 2.94 35.08 16.128 33.12 29.45-1.96 13.323-19.96 21.743-40.21 18.803s-35.09-16.128-33.13-29.45c1.96-13.323 19.97-21.743 40.22-18.803z"/></g><path d="M688.67 93.788c-5.32 12.289-19.76 17.706-32.26 12.099-12.49-5.606-20.19-21.117-12.99-32.41l14.41-22.639c6.41-10.049 17.87-12.772 28.98-7.784 11.12 4.989 16.3 17.906 11.56 28.838-3.48 8.039-6.15 13.708-9.7 21.896z" stroke="#fff"/><g stroke="#000"><g fill="#fff"><path d="M672.1 68.552c10.92 4.391 16 15.757 11.35 25.381-4.65 9.623-17.27 13.867-28.18 9.476-10.92-4.391-16-15.757-11.35-25.381 4.64-9.624 17.26-13.868 28.18-9.476zm-30.59 54.328c17.98 1.967 31.15 10.788 29.41 19.699-1.73 8.911-17.73 14.543-35.71 12.577-17.99-1.966-31.16-10.788-29.42-19.699s17.73-14.543 35.72-12.577z"/><path d="M651.63 88.106c4.25-18.145 28.19-6.874 19.23 7.401-5.59-4.252-12.2-6.354-19.23-7.401zM370.77 117.65c150.24 0 272.08 84.949 272.08 189.7s-121.84 189.7-272.08 189.7-272.08-84.945-272.08-189.7c0-104.75 121.84-189.7 272.08-189.7z"/></g><path d="M372.93 117.65c149.04 0 269.91 83.488 269.91 186.44S521.97 490.53 372.93 490.53s-269.91-83.488-269.91-186.44 120.87-186.44 269.91-186.44z"/><path d="M371.08 121.99c135.62 0 245.6 75.49 245.6 168.58 0 93.086-109.98 168.58-245.6 168.58s-245.61-75.491-245.61-168.58c0-93.087 109.98-168.58 245.61-168.58z"/><path d="M522.6 157.73c59.638 30.759 98.223 79.716 98.223 134.85 0 93.086-109.98 168.57-245.61 168.57-57.018 0-109.5-13.345-151.19-35.729 40.979 21.036 91.844 33.495 146.94 33.495 135.62 0 245.6-75.49 245.6-168.58 0-53.813-36.756-101.74-93.973-132.61z" fill="#fff"/><path d="M677.54 133.46c0 11.126-13.8 20.149-30.82 20.149s-36.98-11.555-35.46-22.576l3.34-24.158c1.53-11.021 15.61-18.794 32.63-18.794 17.01 0 30.82 9.023 30.82 20.149 0 10.882-.51 14.042-.51 25.23z"/><path d="M677.93 107.72c.04.428.07.859.07 1.294 0 11.59-14.15 20.989-31.59 20.989s-31.59-9.399-31.59-20.989c0-.435.02-.866.06-1.294 1.01 10.987 14.74 19.695 31.53 19.695s30.52-8.708 31.52-19.695zm-51.51 30.77c8.44-4.448 16.23 3.96 12.47 11.662.24-.75.39-1.543.43-2.365.27-5.233-3.73-9.693-8.92-9.961a9.324 9.324 0 00-3.98.664z" fill="#fff"/><path d="M515.6 94.196c17.161 1.844 30.158 11.901 29.024 22.458-1.135 10.557-15.972 17.623-33.132 15.779-17.161-1.843-30.158-11.9-29.024-22.458 1.135-10.557 15.971-17.623 33.132-15.779z" fill="none"/><path d="M370.06 118.28c134.35 0 243.3 75.49 243.3 168.58 0 93.087-108.95 168.58-243.3 168.58s-243.31-75.49-243.31-168.58c0-93.087 108.96-168.58 243.31-168.58z" fill="#fff"/></g><path d="M372.74 220.52c43.292 0 78.4 24.824 78.4 55.434 0 30.611-35.108 55.435-78.4 55.435s-78.4-24.824-78.4-55.435c0-30.61 35.108-55.434 78.4-55.434z" stroke="#ff0"/><path d="M372.74 264.21c9.17 0 16.607 5.259 16.607 11.742 0 6.484-7.437 11.742-16.607 11.742s-16.607-5.258-16.607-11.742c0-6.483 7.437-11.742 16.607-11.742z" fill="#fff" stroke="#fff"/></g><g stroke="#000"><path d="M366.21 275.84c.494-5.988-.734-15.119 4.913-18.273 1.331-.905 2.721-.432 3.65.234 3.654 2.622 4.787 10.135 3.85 18.71-4.467 3.456-8.617 3.296-12.413-.671z" fill="#fff" stroke-width="2"/><g stroke-width=".216"><path d="M515.6 94.196c17.161 1.844 30.158 11.901 29.024 22.458-1.135 10.557-15.972 17.623-33.132 15.779-17.161-1.843-30.158-11.9-29.024-22.458 1.135-10.557 15.971-17.623 33.132-15.779z" fill="none"/><path d="M699.4 233.6l51.09-7.454 74.98 144.7-4.1.834-73.07-141.04-46.97 6.851-1.93-3.896z"/></g><path d="M749.91 292.86l10.62 20.782 26.57-3.848.47-3.007-2.69-5.934.79-12.266-3.16-5.539-25.95 2.851-.72 4.73-4.81.296-.2.012-.3.019-.62.038v1.866z" fill="#fff"/><g stroke-width=".216"><path d="M515.6 94.196c17.161 1.844 30.158 11.901 29.024 22.458-.249 2.315-1.157 4.462-2.604 6.384.398-3.934-2.469-7.075-2.469-7.075l-51.905 6.344c-3.683-3.658-5.648-7.95-5.178-12.332 1.135-10.557 15.971-17.623 33.132-15.779z" fill="#fff"/><path d="M487.56 122.28c14.675-2.032 31.118-3.59 45.793-5.622-13.348-7.424-30.496-9.364-48.811 1.729.669 1.253 1.765 2.539 3.018 3.893zm137.35 20.16c6.92-1.302 12.83.107 11.99 9.488-9.69 10.542-14.36 23.521-14.63 35.184.59 22.816 2.92 56.953-4.47 68.448-10.23 21.975-33.532 29.919-48.385 42.966.79 3.361-.451 6.741-1.467 7.996-5.105 3.885-8.744 7.094-13.849 10.979l.135 3.253-15.587 11.385c5.499 2.894 9.35 6.022 12.74 9.217.632 1.37.36 2.137-.812 2.304-4.079-4.495-9.569-8.425-18.163-11.114l-21.144 15.18-.406 9.488-12.741 7.455-1.22-.136-8.54 5.422c-.857-.316-1.716-1.05-2.574-1.365.439-6.601-4.142-11.993-5.39-4.112l-3.388-2.034c.226-4.111.69-9.115.917-13.227 1.445-1.581 3.723-2.538 5.169-4.12l-9.223-7.943-.013-2.575 22.77-17.484c2.622 1.337 5.242 1.687 7.862-.136l31.716-20.195 4.609 2.439 15.045-11.114c1.852-.919 3.705-.558 5.557 1.084 12.695-9.397 25.39-18.794 38.082-28.192 6.5-4.303 11.41-14.67 9.76-50.014.38-16.576-.83-32.935 5.7-50.014 2.89-5.692 7.05-12.82 9.95-18.513zm98.75 120.71c1.2 0 2.17.728 2.17 1.626 0 .899-.97 1.627-2.17 1.627s-2.17-.728-2.17-1.627c0-.898.97-1.626 2.17-1.626z"/><g fill="#fff"><path d="M541.93 298.8c1.291-.197 2.528-.657 3.82.006 5.062-3.441 9.737-6.883 14.799-10.324-2.163-.46-3.257-.453-5.764.98-4.055 2.924-8.8 6.414-12.855 9.338zm12.43 17.49c.592-1.164.459-3.396.237-4.83 4.858-3.723 9.595-7.079 14.454-10.801-.244 2.198-.831 4.348-2.98 6.277-4.05 2.929-7.661 6.425-11.711 9.354zm67.81-98.81c1.71 34.19-9.37 49.636-24.99 59.243 24.9-12.561 26.66-34.083 24.99-59.243z"/><path d="M634.19 144.36c-17 25.146-15.11 47.402-14.94 64.483.18 17.08 1 29.658-1.22 35.891-8.04 22.564-28.969 35.309-49.588 49.035-.105.07-.199.259-.315.21-.52-.218-.816-.154-.99.06-.146.178-.208.459-.248.767-.018.136-.229.153-.343.229-4.756 3.187-9.475 6.445-13.993 9.905-1.628-2.01-3.471-3.913-5.787-5.58l14.26-9.92c.066-.037.13-.085.192-.136.272-.221.529-.516.851-.47 1.154.164 1.606-.102 1.358-.798-.032-.09.162-.096.243-.144 28.203-16.715 46.44-34.099 45.87-63.991-.65-34.224-6.52-49.133 14.73-80.988 4.74-1.494 8.05-1.012 9.92 1.447zm-539.364 29.2c10.59 0 19.179 5.979 19.179 13.351s-8.589 13.351-19.179 13.351-19.179-5.979-19.179-13.351c0-7.372 8.589-13.351 19.179-13.351z"/></g><path d="M94.876 182.92c9.121 0 16.517 3.88 16.517 8.664 0 4.785-7.396 8.665-16.517 8.665-9.121 0-16.518-3.88-16.518-8.665 0-4.784 7.397-8.664 16.518-8.664z"/><path d="M94.559 183.75c5.743 0 10.4 2.443 10.4 5.455v5.418c0 3.014-4.657 5.456-10.4 5.456-5.744 0-10.4-2.442-10.4-5.456v-5.418c0-3.012 4.656-5.455 10.4-5.455z" fill="#fff"/></g></g><g stroke-width=".216"><path d="M189.63 434.35c13.23 0 23.96 7.355 23.96 16.424 0 10.108 1.354 12.248 1.354 21.508 0 9.07-11.032 16.42-24.637 16.42-13.604 0-24.636-7.35-24.636-16.42v-21.508c0-9.069 10.729-16.424 23.959-16.424z" stroke="#fff"/><g stroke="#000"><path d="M189.81 434.42c13.081 0 23.69 7.113 23.69 15.885s-10.609 15.884-23.69 15.884-23.689-7.112-23.689-15.884 10.608-15.885 23.689-15.885z" fill="none"/><path d="M213.5 450.69c.005.135.008.27.008.406 0 9.212-10.609 16.682-23.69 16.682s-23.689-7.47-23.689-16.682c0-.136.003-.271.007-.406.306 8.594 10.876 14.768 23.764 14.768s23.294-6.174 23.6-14.768zm260.54-115.96l24.788 17.533 22.067-17.13.907-5.542 30.851-21.348-16.589-11.447-31.819 20.276c-2.232 1.328-4.795 1.31-7.509.219L474.04 334.73z" fill="#fff"/><path d="M759.31 304.19l25.44-3.345.87-12.127-24.74 3.477-4.12-6.155 3.3 6.269-.75 11.881z"/></g><path d="M104.4 188.28c.037.139.057.28.057.423 0 2.164-4.429 3.92-9.891 3.92-5.461 0-9.89-1.756-9.89-3.92 0-.143.02-.284.057-.423.532 1.967 4.732 3.498 9.833 3.498 5.102 0 9.302-1.531 9.834-3.498z" fill="#fff" stroke="#fff"/></g><g stroke="#000"><g stroke-width=".216"><path d="M760.81 309.45l.06 4.201 26.38-3.727-.05-3.835-25.59 3.259-2.27-5.32 1.47 5.422zm-94.4-229.52c-.73-.987-2.33-1.155-3.37-1.036-1.59 3.255-3.27 6.849-4.86 10.103-.28 1.335 1.6.995 2.64 1.3 1.6-3.254 3.99-7.113 5.59-10.367zM160.02 510.61l-.092-4.02 65.31-6.76 7.781 21.87-.1 4.01-65.488 11.04-7.411-26.14zm354.32-191.69c2.792 0 5.056 1.537 5.056 3.431 0 1.895-2.264 3.431-5.056 3.431s-5.057-1.536-5.057-3.431c0-1.894 2.265-3.431 5.057-3.431zm21.68-14.44c3.49 0 6.32 1.663 6.32 3.714s-2.83 3.714-6.32 3.714-6.321-1.663-6.321-3.714 2.831-3.714 6.321-3.714z"/><path d="M535.2 305.56c2.643 0 4.786 1.454 4.786 3.247s-2.143 3.248-4.786 3.248c-2.642 0-4.785-1.455-4.785-3.248s2.143-3.247 4.785-3.247zm-57.18 43.75l10.507 8.92-.16 11.458 1.925-11.115 6.666-4.107-7.227 2.108-11.711-7.264z" fill="#fff"/></g><path d="M160.02 506.55l65.218-10.78 7.681 25.87-65.488 11.05-7.411-26.14z" fill="#fff"/><path d="M245.93 511.84l-.031-1.39 22.561-2.34 2.688 7.56-.034 1.38-22.624 3.82-2.56-9.03z" stroke-width=".216"/><path d="M245.93 510.43l22.53-3.72 2.654 8.94-22.624 3.81-2.56-9.03z" fill="#fff"/><path d="M281.82 505.86l-.032-1.39 22.562-2.34 2.688 7.55-.035 1.39-22.623 3.82-2.56-9.03z" stroke-width=".216"/><path d="M281.82 504.45l22.53-3.72 2.653 8.94-22.623 3.81-2.56-9.03z" fill="#fff"/><path d="M628.42 139.78c-20.91 27.099-16.27 50.224-17.66 67.025-3.31-23.815 1.93-47.318 17.66-67.025zM193.51 568.34c25.508 0 46.194 15.86 46.194 35.41s-20.686 35.41-46.194 35.41-46.194-15.86-46.194-35.41 20.686-35.41 46.194-35.41zm611.31-113.4c25.51 0 46.19 15.856 46.19 35.406s-20.68 35.41-46.19 35.41-46.2-15.86-46.2-35.41 20.69-35.406 46.2-35.406zM369.05 277.18s-1.005-16.496 3.155-19.221c4.16-2.726-3.586 11.475-1.004 19.938-.784 3.261-3.274-2.451-2.151-.717zm386.97 13.26l-1.02 5.389-4.73-4.871 5.75-.518z" stroke-width=".216"/></g></svg>